<svg xmlns="http://www.w3.org/2000/svg" xmlns:xlink="http://www.w3.org/1999/xlink" width="1920" zoomAndPan="magnify" viewBox="0 0 1440 809.999993" height="1080" preserveAspectRatio="xMidYMid meet" version="1.0"><defs><g/><clipPath id="76646ce0a7"><path d="M 298.984375 0 L 557 0 L 557 491 L 298.984375 491 Z M 298.984375 0 " clip-rule="nonzero"/></clipPath><clipPath id="cdef835f57"><path d="M 313 299 L 571.234375 299 L 571.234375 791 L 313 791 Z M 313 299 " clip-rule="nonzero"/></clipPath><clipPath id="7b8babd6ec"><rect x="0" width="458" y="0" height="396"/></clipPath></defs><g clip-path="url(#76646ce0a7)"><path fill="#9975c1" d="M 358.125 0.832031 C 358.125 0.832031 252.304688 133.769531 323.757812 234.160156 C 395.207031 334.550781 465.425781 409.734375 479.125 425.714844 C 492.820312 441.699219 531.015625 484.457031 536.445312 490.875 C 563.164062 457.214844 573.558594 358.492188 503.28125 302.988281 C 433 247.488281 283.804688 147.714844 358.125 0.832031 Z M 358.125 0.832031 " fill-opacity="1" fill-rule="nonzero"/></g><g clip-path="url(#cdef835f57)"><path fill="#9975c1" d="M 512.320312 790.042969 C 512.320312 790.042969 618.140625 657.101562 546.6875 556.710938 C 475.238281 456.320312 405.019531 381.136719 391.320312 365.15625 C 377.621094 349.175781 339.429688 306.414062 334 299.996094 C 307.28125 333.65625 296.882812 432.378906 367.164062 487.882812 C 437.445312 543.382812 586.609375 643.15625 512.320312 790.042969 Z M 512.320312 790.042969 " fill-opacity="1" fill-rule="nonzero"/></g><path fill="#9975c1" d="M 542.925781 154.378906 C 542.925781 155.464844 542.898438 156.554688 542.84375 157.640625 C 542.792969 158.726562 542.710938 159.8125 542.605469 160.894531 C 542.5 161.976562 542.363281 163.058594 542.207031 164.132812 C 542.046875 165.210938 541.859375 166.28125 541.648438 167.347656 C 541.433594 168.414062 541.195312 169.476562 540.933594 170.53125 C 540.667969 171.589844 540.378906 172.636719 540.0625 173.675781 C 539.746094 174.71875 539.40625 175.75 539.039062 176.777344 C 538.671875 177.800781 538.28125 178.816406 537.863281 179.820312 C 537.449219 180.824219 537.007812 181.820312 536.542969 182.804688 C 536.078125 183.789062 535.585938 184.757812 535.074219 185.71875 C 534.5625 186.679688 534.027344 187.625 533.464844 188.558594 C 532.90625 189.492188 532.324219 190.410156 531.71875 191.316406 C 531.117188 192.21875 530.488281 193.109375 529.839844 193.984375 C 529.191406 194.855469 528.523438 195.714844 527.832031 196.554688 C 527.144531 197.398438 526.433594 198.21875 525.703125 199.027344 C 524.972656 199.832031 524.222656 200.621094 523.453125 201.390625 C 522.683594 202.160156 521.894531 202.910156 521.089844 203.640625 C 520.28125 204.371094 519.457031 205.082031 518.617188 205.773438 C 517.777344 206.460938 516.917969 207.132812 516.046875 207.78125 C 515.171875 208.425781 514.28125 209.054688 513.378906 209.660156 C 512.472656 210.261719 511.554688 210.84375 510.621094 211.402344 C 509.6875 211.964844 508.742188 212.5 507.78125 213.011719 C 506.820312 213.527344 505.851562 214.015625 504.867188 214.480469 C 503.882812 214.945312 502.886719 215.386719 501.882812 215.800781 C 500.878906 216.21875 499.863281 216.609375 498.839844 216.976562 C 497.8125 217.34375 496.78125 217.683594 495.738281 218 C 494.699219 218.316406 493.648438 218.605469 492.59375 218.871094 C 491.539062 219.136719 490.476562 219.375 489.410156 219.585938 C 488.34375 219.796875 487.273438 219.984375 486.195312 220.144531 C 485.117188 220.304688 484.039062 220.4375 482.957031 220.542969 C 481.875 220.648438 480.789062 220.730469 479.703125 220.78125 C 478.617188 220.835938 477.527344 220.863281 476.441406 220.863281 C 475.351562 220.863281 474.265625 220.835938 473.179688 220.78125 C 472.089844 220.730469 471.007812 220.648438 469.921875 220.542969 C 468.839844 220.4375 467.761719 220.304688 466.683594 220.144531 C 465.609375 219.984375 464.535156 219.796875 463.46875 219.585938 C 462.402344 219.375 461.339844 219.136719 460.285156 218.871094 C 459.230469 218.605469 458.183594 218.316406 457.140625 218 C 456.097656 217.683594 455.066406 217.34375 454.042969 216.976562 C 453.015625 216.609375 452.003906 216.21875 450.996094 215.800781 C 449.992188 215.386719 448.996094 214.945312 448.015625 214.480469 C 447.03125 214.015625 446.058594 213.527344 445.097656 213.011719 C 444.140625 212.5 443.191406 211.964844 442.261719 211.402344 C 441.328125 210.84375 440.40625 210.261719 439.503906 209.660156 C 438.597656 209.054688 437.710938 208.425781 436.835938 207.78125 C 435.960938 207.132812 435.105469 206.460938 434.261719 205.773438 C 433.421875 205.082031 432.597656 204.371094 431.792969 203.640625 C 430.984375 202.910156 430.199219 202.160156 429.429688 201.390625 C 428.660156 200.621094 427.910156 199.832031 427.179688 199.027344 C 426.449219 198.21875 425.738281 197.398438 425.046875 196.554688 C 424.355469 195.714844 423.6875 194.855469 423.039062 193.984375 C 422.390625 193.109375 421.765625 192.21875 421.160156 191.316406 C 420.554688 190.410156 419.972656 189.492188 419.414062 188.558594 C 418.855469 187.625 418.320312 186.679688 417.804688 185.71875 C 417.292969 184.757812 416.804688 183.789062 416.339844 182.804688 C 415.875 181.820312 415.433594 180.824219 415.015625 179.820312 C 414.601562 178.816406 414.207031 177.800781 413.839844 176.777344 C 413.476562 175.75 413.132812 174.71875 412.816406 173.675781 C 412.503906 172.636719 412.210938 171.589844 411.949219 170.53125 C 411.683594 169.476562 411.445312 168.414062 411.234375 167.347656 C 411.019531 166.28125 410.835938 165.210938 410.675781 164.132812 C 410.515625 163.058594 410.382812 161.976562 410.273438 160.894531 C 410.167969 159.8125 410.089844 158.726562 410.035156 157.640625 C 409.980469 156.554688 409.957031 155.464844 409.957031 154.378906 C 409.957031 153.289062 409.980469 152.203125 410.035156 151.117188 C 410.089844 150.027344 410.167969 148.945312 410.273438 147.863281 C 410.382812 146.777344 410.515625 145.699219 410.675781 144.621094 C 410.835938 143.546875 411.019531 142.476562 411.234375 141.40625 C 411.445312 140.339844 411.683594 139.277344 411.949219 138.222656 C 412.210938 137.167969 412.503906 136.121094 412.816406 135.078125 C 413.132812 134.039062 413.476562 133.003906 413.839844 131.980469 C 414.207031 130.957031 414.601562 129.941406 415.015625 128.933594 C 415.433594 127.929688 415.875 126.9375 416.339844 125.953125 C 416.804688 124.96875 417.292969 123.996094 417.804688 123.039062 C 418.320312 122.078125 418.855469 121.132812 419.414062 120.199219 C 419.972656 119.265625 420.554688 118.347656 421.160156 117.441406 C 421.765625 116.535156 422.390625 115.648438 423.039062 114.773438 C 423.6875 113.898438 424.355469 113.042969 425.046875 112.199219 C 425.738281 111.359375 426.449219 110.535156 427.179688 109.730469 C 427.910156 108.921875 428.660156 108.136719 429.429688 107.367188 C 430.199219 106.597656 430.984375 105.847656 431.792969 105.117188 C 432.597656 104.386719 433.421875 103.675781 434.261719 102.984375 C 435.105469 102.292969 435.960938 101.625 436.835938 100.976562 C 437.710938 100.328125 438.597656 99.703125 439.503906 99.097656 C 440.40625 98.492188 441.328125 97.910156 442.261719 97.351562 C 443.191406 96.792969 444.140625 96.257812 445.097656 95.742188 C 446.058594 95.230469 447.03125 94.742188 448.015625 94.277344 C 448.996094 93.8125 449.992188 93.371094 450.996094 92.953125 C 452.003906 92.539062 453.015625 92.144531 454.042969 91.78125 C 455.066406 91.414062 456.097656 91.070312 457.140625 90.757812 C 458.183594 90.441406 459.230469 90.148438 460.285156 89.886719 C 461.339844 89.621094 462.402344 89.382812 463.46875 89.171875 C 464.535156 88.957031 465.609375 88.773438 466.683594 88.613281 C 467.761719 88.453125 468.839844 88.320312 469.921875 88.214844 C 471.007812 88.105469 472.089844 88.027344 473.179688 87.972656 C 474.265625 87.921875 475.351562 87.894531 476.441406 87.894531 C 477.527344 87.894531 478.617188 87.921875 479.703125 87.972656 C 480.789062 88.027344 481.875 88.105469 482.957031 88.214844 C 484.039062 88.320312 485.121094 88.453125 486.195312 88.613281 C 487.273438 88.773438 488.34375 88.957031 489.410156 89.171875 C 490.476562 89.382812 491.539062 89.621094 492.59375 89.886719 C 493.648438 90.148438 494.699219 90.441406 495.738281 90.757812 C 496.78125 91.070312 497.8125 91.414062 498.839844 91.78125 C 499.863281 92.144531 500.878906 92.539062 501.882812 92.953125 C 502.886719 93.371094 503.882812 93.8125 504.867188 94.277344 C 505.851562 94.742188 506.820312 95.230469 507.78125 95.742188 C 508.742188 96.257812 509.6875 96.792969 510.621094 97.351562 C 511.554688 97.910156 512.472656 98.492188 513.378906 99.097656 C 514.28125 99.703125 515.171875 100.328125 516.046875 100.976562 C 516.917969 101.625 517.777344 102.292969 518.617188 102.984375 C 519.457031 103.675781 520.28125 104.386719 521.089844 105.117188 C 521.894531 105.847656 522.683594 106.597656 523.453125 107.367188 C 524.222656 108.136719 524.972656 108.921875 525.703125 109.730469 C 526.433594 110.535156 527.144531 111.359375 527.832031 112.199219 C 528.523438 113.042969 529.191406 113.898438 529.839844 114.773438 C 530.488281 115.648438 531.117188 116.535156 531.71875 117.441406 C 532.324219 118.347656 532.90625 119.265625 533.464844 120.199219 C 534.027344 121.132812 534.5625 122.078125 535.074219 123.039062 C 535.585938 123.996094 536.078125 124.96875 536.542969 125.953125 C 537.007812 126.9375 537.449219 127.929688 537.863281 128.933594 C 538.28125 129.941406 538.671875 130.957031 539.039062 131.980469 C 539.40625 133.003906 539.746094 134.039062 540.0625 135.078125 C 540.378906 136.121094 540.667969 137.167969 540.933594 138.222656 C 541.195312 139.277344 541.433594 140.339844 541.648438 141.40625 C 541.859375 142.476562 542.046875 143.546875 542.207031 144.621094 C 542.363281 145.699219 542.5 146.777344 542.605469 147.863281 C 542.710938 148.945312 542.792969 150.027344 542.84375 151.117188 C 542.898438 152.203125 542.925781 153.289062 542.925781 154.378906 Z M 542.925781 154.378906 " fill-opacity="1" fill-rule="nonzero"/><path fill="#9975c1" d="M 479.277344 682 C 479.277344 653.648438 456.230469 630.601562 427.878906 630.601562 C 399.527344 630.601562 376.480469 653.648438 376.480469 682 C 376.480469 708.378906 396.535156 729.910156 422.140625 732.8125 L 422.140625 754.285156 C 422.140625 778.195312 402.675781 797.632812 378.796875 797.632812 C 357.015625 797.632812 339.273438 779.890625 339.273438 758.109375 L 339.273438 573.371094 C 350.875 570.75 359.574219 560.414062 359.574219 548.011719 C 359.574219 533.636719 347.914062 521.972656 333.535156 521.972656 C 319.160156 521.972656 307.496094 533.636719 307.496094 548.011719 C 307.496094 560.414062 316.199219 570.75 327.796875 573.371094 L 327.796875 758.109375 C 327.796875 786.246094 350.691406 809.136719 378.824219 809.136719 C 409.058594 809.136719 433.679688 784.519531 433.679688 754.285156 L 433.679688 732.8125 C 459.226562 729.914062 479.277344 708.378906 479.277344 682 Z M 427.878906 721.890625 C 405.882812 721.890625 387.957031 703.996094 387.957031 682 C 387.957031 660.003906 405.851562 642.109375 427.878906 642.109375 C 449.90625 642.109375 467.800781 660.003906 467.800781 682 C 467.769531 703.996094 449.878906 721.890625 427.878906 721.890625 Z M 427.878906 721.890625 " fill-opacity="1" fill-rule="nonzero"/><path fill="#9975c1" d="M 427.878906 656.761719 C 413.933594 656.761719 402.644531 668.054688 402.644531 682 C 402.644531 695.945312 413.933594 707.234375 427.878906 707.234375 C 441.824219 707.234375 453.117188 695.945312 453.117188 682 C 453.117188 668.054688 441.792969 656.761719 427.878906 656.761719 Z M 427.878906 656.761719 " fill-opacity="1" fill-rule="nonzero"/><g transform="matrix(1, 0, 0, 1, 614, 78)"><g clip-path="url(#7b8babd6ec)"><g fill="#c1a7e3" fill-opacity="1"><g transform="translate(3.594645, 309.34719)"><g><path d="M 100 -178.28125 L 68.09375 -146.046875 L 35.859375 -178.28125 L 68.09375 -210.1875 Z M 72.03125 -131.90625 L 132.234375 -131.90625 L 132.234375 70.0625 C 132.234375 70.0625 128.285156 70.0625 120.390625 70.0625 C 112.492188 70.0625 99.222656 70.0625 80.578125 70.0625 C 61.941406 70.0625 36.398438 70.0625 3.953125 70.0625 L 3.953125 -131.90625 L 64.140625 -131.90625 L 64.140625 0 L 72.03125 0 Z M 72.03125 -131.90625 "/></g></g></g><g fill="#c1a7e3" fill-opacity="1"><g transform="translate(139.771949, 309.34719)"><g><path d="M 163.15625 -62.171875 L 171.046875 -62.171875 L 171.046875 0 L 163.15625 0 L 163.15625 70.0625 L 100.65625 70.0625 L 100.65625 0 L 3.953125 0 L 3.953125 -131.90625 L 163.15625 -131.90625 Z M 100.65625 -62.171875 L 100.65625 -70.0625 L 66.453125 -70.0625 L 66.453125 -62.171875 Z M 100.65625 -62.171875 "/></g></g></g><g fill="#c1a7e3" fill-opacity="1"><g transform="translate(306.868719, 309.34719)"><g><path d="M -3.953125 0 L -3.953125 -62.171875 L 3.953125 -62.171875 L 3.953125 -131.90625 L 136.1875 -131.90625 L 136.1875 -70.0625 L 66.453125 -70.0625 L 66.453125 -62.171875 L 146.046875 -62.171875 L 146.046875 0 Z M -3.953125 0 "/></g></g></g></g></g><g fill="#c1a7e3" fill-opacity="1"><g transform="translate(624.83482, 579.835047)"><g><path d="M 56.515625 -29.484375 C 56.515625 -18.804688 54.472656 -11.097656 50.390625 -6.359375 C 46.304688 -1.617188 39.644531 0.75 30.40625 0.75 C 20.488281 0.75 13.644531 -1.445312 9.875 -5.84375 C 6.101562 -10.25 4.21875 -18.128906 4.21875 -29.484375 C 4.21875 -40.085938 6.273438 -47.757812 10.390625 -52.5 C 14.503906 -57.238281 21.175781 -59.609375 30.40625 -59.609375 C 40.332031 -59.609375 47.164062 -57.410156 50.90625 -53.015625 C 54.644531 -48.617188 56.515625 -40.773438 56.515625 -29.484375 Z M 15.0625 -12.546875 C 16.25 -10.421875 17.992188 -8.921875 20.296875 -8.046875 C 22.609375 -7.171875 25.976562 -6.734375 30.40625 -6.734375 C 37.332031 -6.734375 42.070312 -8.398438 44.625 -11.734375 C 47.1875 -15.078125 48.46875 -20.992188 48.46875 -29.484375 C 48.46875 -33.722656 48.25 -37.195312 47.8125 -39.90625 C 47.375 -42.625 46.691406 -44.828125 45.765625 -46.515625 C 44.578125 -48.628906 42.84375 -50.140625 40.5625 -51.046875 C 38.289062 -51.953125 34.90625 -52.40625 30.40625 -52.40625 C 23.425781 -52.40625 18.65625 -50.71875 16.09375 -47.34375 C 13.539062 -43.976562 12.265625 -38.023438 12.265625 -29.484375 C 12.265625 -25.234375 12.476562 -21.75 12.90625 -19.03125 C 13.34375 -16.320312 14.0625 -14.160156 15.0625 -12.546875 Z M 15.0625 -12.546875 "/></g></g></g><g fill="#c1a7e3" fill-opacity="1"><g transform="translate(732.357734, 579.835047)"><g><path d="M 45.109375 -23.390625 L 45.109375 -58.671875 L 53.0625 -58.671875 L 53.0625 -23.390625 C 53.0625 -15.160156 51.140625 -9.078125 47.296875 -5.140625 C 43.460938 -1.210938 37.523438 0.75 29.484375 0.75 C 21.367188 0.75 15.453125 -1.164062 11.734375 -5 C 8.023438 -8.84375 6.171875 -14.972656 6.171875 -23.390625 L 6.171875 -58.671875 L 14.125 -58.671875 L 14.125 -23.390625 C 14.125 -17.210938 15.265625 -12.890625 17.546875 -10.421875 C 19.828125 -7.960938 23.804688 -6.734375 29.484375 -6.734375 C 35.222656 -6.734375 39.257812 -7.960938 41.59375 -10.421875 C 43.9375 -12.890625 45.109375 -17.210938 45.109375 -23.390625 Z M 45.109375 -23.390625 "/></g></g></g><g fill="#c1a7e3" fill-opacity="1"><g transform="translate(838.383462, 579.835047)"><g><path d="M 17.5 0 L 1.21875 -58.671875 L 9.828125 -58.671875 L 19.5625 -21.515625 C 19.8125 -20.523438 20.078125 -19.359375 20.359375 -18.015625 C 20.640625 -16.671875 21.273438 -13.222656 22.265625 -7.671875 C 23.390625 -13.347656 24.109375 -16.84375 24.421875 -18.15625 C 24.734375 -19.46875 25.015625 -20.585938 25.265625 -21.515625 L 35.9375 -58.671875 L 44.265625 -58.671875 L 55.03125 -21.515625 C 55.269531 -20.585938 55.546875 -19.5 55.859375 -18.25 C 56.171875 -17 56.890625 -13.535156 58.015625 -7.859375 C 58.703125 -11.660156 59.28125 -14.703125 59.75 -16.984375 C 60.21875 -19.265625 60.546875 -20.773438 60.734375 -21.515625 L 70.375 -58.671875 L 78.703125 -58.671875 L 62.421875 0 L 53.4375 0 L 43.984375 -31.4375 C 43.296875 -33.75 42.640625 -36.210938 42.015625 -38.828125 C 41.390625 -41.453125 40.703125 -44.570312 39.953125 -48.1875 C 39.203125 -44.570312 38.515625 -41.453125 37.890625 -38.828125 C 37.273438 -36.210938 36.625 -33.75 35.9375 -31.4375 L 26.578125 0 Z M 17.5 0 "/></g></g></g><g fill="#c1a7e3" fill-opacity="1"><g transform="translate(965.089078, 579.835047)"><g><path d="M 54.75 -58.671875 L 54.75 0 L 46.703125 0 L 14.21875 -45.671875 L 14.21875 0 L 6.734375 0 L 6.734375 -58.671875 L 14.78125 -58.671875 L 47.25 -12.359375 L 47.25 -58.671875 Z M 54.75 -58.671875 "/></g></g></g></svg>